<?xml version="1.0" encoding="UTF-8" standalone="no"?><svg xmlns="http://www.w3.org/2000/svg" id="pixel-perfect-work-profile-pic" width="528" height="528" viewBox="0 0 528 528" preserveAspectRatio="xMidYMid meet" rendering="crispEdges"><rect id="4-2" x="144" y="48" width="48" height="48" shape-rendering="crispEdges" style="fill:#e43b44;opacity:255;"></rect><rect id="5-2" x="192" y="48" width="48" height="48" shape-rendering="crispEdges" style="fill:#e43b44;opacity:255;"></rect><rect id="10-2" x="432" y="48" width="48" height="48" shape-rendering="crispEdges" style="fill:#e43b44;opacity:255;"></rect><rect id="4-3" x="144" y="96" width="48" height="48" shape-rendering="crispEdges" style="fill:#e43b44;opacity:255;"></rect><rect id="5-3" x="192" y="96" width="48" height="48" shape-rendering="crispEdges" style="fill:#e43b44;opacity:255;"></rect><rect id="6-3" x="240" y="96" width="48" height="48" shape-rendering="crispEdges" style="fill:#8b9bb4;opacity:255;"></rect><rect id="7-3" x="288" y="96" width="48" height="48" shape-rendering="crispEdges" style="fill:#8b9bb4;opacity:255;"></rect><rect id="8-3" x="336" y="96" width="48" height="48" shape-rendering="crispEdges" style="fill:#8b9bb4;opacity:255;"></rect><rect id="9-3" x="384" y="96" width="48" height="48" shape-rendering="crispEdges" style="fill:#8b9bb4;opacity:255;"></rect><rect id="3-4" x="96" y="144" width="48" height="48" shape-rendering="crispEdges" style="fill:#e43b44;opacity:255;"></rect><rect id="4-4" x="144" y="144" width="48" height="48" shape-rendering="crispEdges" style="fill:#e43b44;opacity:255;"></rect><rect id="5-4" x="192" y="144" width="48" height="48" shape-rendering="crispEdges" style="fill:#e43b44;opacity:255;"></rect><rect id="6-4" x="240" y="144" width="48" height="48" shape-rendering="crispEdges" style="fill:#8b9bb4;opacity:255;"></rect><rect id="7-4" x="288" y="144" width="48" height="48" shape-rendering="crispEdges" style="fill:#8b9bb4;opacity:255;"></rect><rect id="8-4" x="336" y="144" width="48" height="48" shape-rendering="crispEdges" style="fill:#8b9bb4;opacity:255;"></rect><rect id="9-4" x="384" y="144" width="48" height="48" shape-rendering="crispEdges" style="fill:#8b9bb4;opacity:255;"></rect><rect id="3-5" x="96" y="192" width="48" height="48" shape-rendering="crispEdges" style="fill:#e43b44;opacity:255;"></rect><rect id="4-5" x="144" y="192" width="48" height="48" shape-rendering="crispEdges" style="fill:#e43b44;opacity:255;"></rect><rect id="5-5" x="192" y="192" width="48" height="48" shape-rendering="crispEdges" style="fill:#e43b44;opacity:255;"></rect><rect id="7-5" x="288" y="192" width="48" height="48" shape-rendering="crispEdges" style="fill:#8b9bb4;opacity:255;"></rect><rect id="8-5" x="336" y="192" width="48" height="48" shape-rendering="crispEdges" style="fill:#8b9bb4;opacity:255;"></rect><rect id="9-5" x="384" y="192" width="48" height="48" shape-rendering="crispEdges" style="fill:#8b9bb4;opacity:255;"></rect><rect id="2-6" x="48" y="240" width="48" height="48" shape-rendering="crispEdges" style="fill:#e43b44;opacity:255;"></rect><rect id="3-6" x="96" y="240" width="48" height="48" shape-rendering="crispEdges" style="fill:#e43b44;opacity:255;"></rect><rect id="4-6" x="144" y="240" width="48" height="48" shape-rendering="crispEdges" style="fill:#e43b44;opacity:255;"></rect><rect id="5-6" x="192" y="240" width="48" height="48" shape-rendering="crispEdges" style="fill:#e43b44;opacity:255;"></rect><rect id="8-6" x="336" y="240" width="48" height="48" shape-rendering="crispEdges" style="fill:#8b9bb4;opacity:255;"></rect><rect id="9-6" x="384" y="240" width="48" height="48" shape-rendering="crispEdges" style="fill:#8b9bb4;opacity:255;"></rect><rect id="2-7" x="48" y="288" width="48" height="48" shape-rendering="crispEdges" style="fill:#e43b44;opacity:255;"></rect><rect id="3-7" x="96" y="288" width="48" height="48" shape-rendering="crispEdges" style="fill:#e43b44;opacity:255;"></rect><rect id="4-7" x="144" y="288" width="48" height="48" shape-rendering="crispEdges" style="fill:#e43b44;opacity:255;"></rect><rect id="5-7" x="192" y="288" width="48" height="48" shape-rendering="crispEdges" style="fill:#8b9bb4;opacity:255;"></rect><rect id="6-7" x="240" y="288" width="48" height="48" shape-rendering="crispEdges" style="fill:#e43b44;opacity:255;"></rect><rect id="7-7" x="288" y="288" width="48" height="48" shape-rendering="crispEdges" style="fill:#e43b44;opacity:255;"></rect><rect id="8-7" x="336" y="288" width="48" height="48" shape-rendering="crispEdges" style="fill:#e43b44;opacity:255;"></rect><rect id="9-7" x="384" y="288" width="48" height="48" shape-rendering="crispEdges" style="fill:#e43b44;opacity:255;"></rect><rect id="10-7" x="432" y="288" width="48" height="48" shape-rendering="crispEdges" style="fill:#e43b44;opacity:255;"></rect><rect id="3-8" x="96" y="336" width="48" height="48" shape-rendering="crispEdges" style="fill:#e43b44;opacity:255;"></rect><rect id="4-8" x="144" y="336" width="48" height="48" shape-rendering="crispEdges" style="fill:#8b9bb4;opacity:255;"></rect><rect id="5-8" x="192" y="336" width="48" height="48" shape-rendering="crispEdges" style="fill:#e43b44;opacity:255;"></rect><rect id="6-8" x="240" y="336" width="48" height="48" shape-rendering="crispEdges" style="fill:#e43b44;opacity:255;"></rect><rect id="7-8" x="288" y="336" width="48" height="48" shape-rendering="crispEdges" style="fill:#e43b44;opacity:255;"></rect><rect id="8-8" x="336" y="336" width="48" height="48" shape-rendering="crispEdges" style="fill:#e43b44;opacity:255;"></rect><rect id="9-8" x="384" y="336" width="48" height="48" shape-rendering="crispEdges" style="fill:#e43b44;opacity:255;"></rect><rect id="10-8" x="432" y="336" width="48" height="48" shape-rendering="crispEdges" style="fill:#e43b44;opacity:255;"></rect><rect id="4-9" x="144" y="384" width="48" height="48" shape-rendering="crispEdges" style="fill:#e43b44;opacity:255;"></rect><rect id="5-9" x="192" y="384" width="48" height="48" shape-rendering="crispEdges" style="fill:#e43b44;opacity:255;"></rect><rect id="6-9" x="240" y="384" width="48" height="48" shape-rendering="crispEdges" style="fill:#e43b44;opacity:255;"></rect><rect id="7-9" x="288" y="384" width="48" height="48" shape-rendering="crispEdges" style="fill:#e43b44;opacity:255;"></rect><rect id="8-9" x="336" y="384" width="48" height="48" shape-rendering="crispEdges" style="fill:#e43b44;opacity:255;"></rect><rect id="5-10" x="192" y="432" width="48" height="48" shape-rendering="crispEdges" style="fill:#e43b44;opacity:255;"></rect><rect id="6-10" x="240" y="432" width="48" height="48" shape-rendering="crispEdges" style="fill:#e43b44;opacity:255;"></rect></svg>